PathFileType	4	(X/Y/Z)	G:\Shared drives\HPL_Drive\Nord Sprinting Study\Kristen_Nord_test\Trimmed_Nord000003.trc
DataRate	CameraRate	NumFrames	NumMarkers	Units	OrigDataRate	OrigDataStartFrame	OrigNumFrames
200.00	200.00	      4	52	mm	200.00	996	      1592
Frame#	Time	C7			R_Shoulder			L_Shoulder			Sternum			R_humerus			R_elbow_med			R_elbow_lat			R_forearm			R_wrist_radius			R_wrist_ulna			L_humerus			L_elbow_med			L_elbow_lat			L_forearm			L_wrist_radius			L_wrist_ulna			r.ASIS			r.PSIS			r_IC			L.ASIS			L.PSIS			l_IC			r_thigh1			r_thigh2			r_thigh3			r_thigh4			r_thigh5			r_knee			r_mknee			r_shank_antsup			r_sh2			r_sh3			r_sh4			r_ankle			r_mankle			r_calc			r_5meta			r_toe			L_thigh1			L_thigh2			L_thigh3			L_thigh4			L_knee			L_mknee			L_shank_antsup			L_sh2			L_sh3			L_ankle			L_mankle			L_calc			L_5meta			L_toe			
		X1	Y1	Z1	X2	Y2	Z2	X3	Y3	Z3	X4	Y4	Z4	X5	Y5	Z5	X6	Y6	Z6	X7	Y7	Z7	X8	Y8	Z8	X9	Y9	Z9	X10	Y10	Z10	X11	Y11	Z11	X12	Y12	Z12	X13	Y13	Z13	X14	Y14	Z14	X15	Y15	Z15	X16	Y16	Z16	X17	Y17	Z17	X18	Y18	Z18	X19	Y19	Z19	X20	Y20	Z20	X21	Y21	Z21	X22	Y22	Z22	X23	Y23	Z23	X24	Y24	Z24	X25	Y25	Z25	X26	Y26	Z26	X27	Y27	Z27	X28	Y28	Z28	X29	Y29	Z29	X30	Y30	Z30	X31	Y31	Z31	X32	Y32	Z32	X33	Y33	Z33	X34	Y34	Z34	X35	Y35	Z35	X36	Y36	Z36	X37	Y37	Z37	X38	Y38	Z38	X39	Y39	Z39	X40	Y40	Z40	X41	Y41	Z41	X42	Y42	Z42	X43	Y43	Z43	X44	Y44	Z44	X45	Y45	Z45	X46	Y46	Z46	X47	Y47	Z47	X48	Y48	Z48	X49	Y49	Z49	X50	Y50	Z50	X51	Y51	Z51	X52	Y52	Z52	

996	4.975	1205.88989	31.71791	1257.56079	1324.77502	81.72714	1273.37048	1075.46777	74.88820	1281.25891	1198.44958	177.27490	1231.98914	1494.31653	46.70428	1256.64624	1634.31689	78.20298	1187.00513	1624.10779	9.36743	1226.70251	1599.18103	63.17870	1341.87219	1547.48340	135.83395	1419.35059	1591.75879	126.59114	1436.36755	879.85577	33.13823	1257.80823	757.71906	80.15323	1193.34656	760.29785	7.81190	1222.22400	816.26013	58.00057	1350.60291	819.06842	111.36630	1432.37012	872.01190	105.93697	1413.74146	1321.13916	269.88757	798.81885	1280.76440	79.65745	811.35193	1363.59863	176.31223	858.40149	1082.47302	253.52269	795.68945	1165.65771	75.06796	806.71826	1057.85925	169.15625	846.60205	1383.06042	317.02753	541.37347	1382.64954	346.08255	430.42340	1398.95398	309.00244	392.07901	1395.14893	212.70378	516.68799	1383.53296	243.62708	402.36087	1383.25647	335.70496	316.83499	1253.52344	309.68970	314.32434	1409.38123	221.41405	283.41623	1404.73572	99.91349	272.87500	1417.18945	210.37927	358.19189	1414.60974	94.69350	355.47879	1417.40906	-74.47982	312.28699	1334.38782	-66.66466	290.07550	1376.80579	-105.83733	374.02625	1419.26355	-144.36601	206.61195	1374.68872	-123.22576	165.34996	1013.78918	303.42422	547.06909	1013.18848	341.29236	412.36383	1021.80560	187.02434	519.74860	1023.57715	228.72314	387.02304	1000.10626	302.48492	332.42776	1132.22729	311.53650	306.79099	983.08044	203.21829	300.33841	1005.97955	196.91420	386.82190	1013.04449	76.55840	367.10556	1006.46112	-92.84706	315.39880	1083.53174	-67.07255	275.36121	1055.11963	-101.09392	365.35007	1005.31769	-175.43587	205.00591	1047.80786	-150.35582	152.72884	
997	4.980	1206.05530	31.99426	1257.70325	1324.89526	82.27595	1273.70325	1075.70398	75.13654	1281.62683	1198.53064	177.43977	1232.00208	1494.47253	47.33099	1256.87402	1634.27930	78.87606	1187.17908	1624.23193	9.99410	1226.77966	1599.35352	63.70599	1341.98181	1547.68518	136.25163	1419.52185	1591.99976	127.11842	1436.48059	879.98578	33.34130	1258.22314	757.85962	80.21760	1193.64209	760.46851	7.86204	1222.52942	816.31897	58.18149	1350.99219	819.15686	111.56352	1432.74268	871.77911	106.19350	1414.15979	1321.06165	270.07510	798.87250	1280.73303	79.84615	811.47528	1363.57959	176.53551	858.48798	1082.46887	253.72598	795.87482	1165.67163	75.24755	806.77203	1057.85059	169.24673	846.66083	1383.03882	317.11539	541.40479	1382.65918	346.10236	430.39694	1398.93628	309.04120	392.07007	1395.56641	212.52917	516.68024	1383.51208	243.62808	402.42526	1383.25330	335.68991	316.89142	1253.50134	309.70963	314.34103	1409.51282	220.94659	282.87744	1404.77368	99.89333	272.85339	1417.21985	210.37988	358.20377	1414.66821	94.70023	355.47446	1417.53271	-74.50244	312.22992	1333.58167	-66.74108	289.96078	1376.92407	-105.87445	374.00180	1419.32458	-144.35541	206.61832	1374.67371	-123.27216	165.27332	1014.54376	303.34000	547.05170	1013.21710	341.30981	412.33917	1021.84619	187.04765	519.81024	1024.40320	228.72031	387.36325	1000.12128	302.43314	332.45844	1132.21448	311.55643	306.79807	983.09784	203.26842	300.11707	1005.98657	196.89595	386.83005	1013.19141	76.28081	367.25955	1006.49493	-92.87538	315.38654	1083.55688	-67.10314	275.33148	1055.20239	-101.18884	365.59299	1005.35101	-175.45145	204.96640	1047.82288	-150.39719	152.75032	
998	4.985	1206.20837	32.29732	1257.84961	1325.13440	82.73860	1274.03967	1075.89685	75.46178	1281.90173	1198.53796	177.66432	1232.01367	1494.60303	47.98526	1257.11755	1634.40796	79.57842	1187.18604	1624.39526	10.71067	1226.81763	1599.56970	64.26653	1342.06995	1547.81824	136.62563	1419.70911	1592.18860	127.65862	1436.64404	880.15485	33.56297	1258.56433	757.98840	80.28248	1193.97913	760.62378	7.96790	1222.87292	816.42023	58.33007	1351.29102	819.41266	111.70094	1433.19116	871.96423	106.27391	1414.74817	1320.96643	270.28784	798.94403	1280.76147	80.06325	811.60114	1363.55981	176.80356	858.56622	1082.38892	253.81229	795.86993	1165.71313	75.37743	806.87738	1057.86731	169.36603	846.74414	1383.00830	317.19116	541.41376	1382.62256	346.12833	430.39731	1398.92651	309.05008	392.09576	1395.16223	212.86835	516.86353	1383.51306	243.64557	402.47821	1383.21326	335.70090	316.91965	1253.50476	309.69431	314.33823	1409.39075	221.44536	283.44720	1404.83752	99.91232	272.88004	1417.23962	210.36812	358.19608	1414.76062	94.70715	355.44699	1417.61865	-74.51738	312.24509	1334.56384	-66.66203	290.07428	1377.00354	-105.91960	374.07071	1419.35791	-144.37029	206.63277	1374.74524	-123.23129	165.37984	1014.47614	303.41620	547.10303	1013.17670	341.27893	412.34265	1021.91937	186.98650	519.83569	1024.43091	228.73158	387.37381	1000.09912	302.43338	332.45691	1132.20447	311.55121	306.79953	983.10956	203.19507	300.27588	1006.00262	196.94896	386.81183	1012.69806	76.43092	367.92715	1006.51965	-92.89557	315.40970	1083.54810	-67.13586	275.37067	1055.24487	-101.24263	365.55640	1005.33539	-175.48553	205.05136	1047.83325	-150.41583	152.69603	
999	4.990	1206.36475	32.57195	1257.98535	1325.07434	83.20197	1274.29346	1076.09949	75.80500	1282.17603	1198.61743	177.85840	1231.99609	1494.73523	48.59195	1257.35962	1634.45544	80.25985	1187.28955	1624.56921	11.37914	1226.89526	1599.74011	64.88560	1342.24316	1548.01843	137.10255	1419.91870	1592.29358	128.14914	1436.60339	880.31348	33.77922	1258.99231	758.16010	80.33312	1194.30066	760.71802	8.04731	1223.32056	816.56073	58.54899	1351.57153	819.32581	111.91984	1433.41370	872.08130	106.50381	1415.04785	1320.94092	270.47742	798.96063	1280.75183	80.27312	811.74310	1363.53943	177.05208	858.65857	1082.36816	254.04932	795.86664	1165.70703	75.53979	806.90594	1057.86096	169.49174	846.81793	1382.94604	317.29980	541.43829	1382.59631	346.18259	430.36905	1398.91614	309.07617	392.12851	1395.16895	212.97888	516.94464	1383.41309	243.57080	402.43716	1383.19849	335.66519	316.92154	1253.48303	309.69116	314.35376	1409.39600	221.48389	283.38739	1404.86133	99.89294	272.84808	1417.27600	210.35170	358.19714	1414.82068	94.69117	355.45541	1417.70435	-74.56684	312.23297	1334.65125	-66.67249	290.03839	1377.12891	-105.90720	374.01556	1419.42163	-144.44023	206.62799	1374.63672	-123.34109	165.31670	1014.50635	303.40692	547.06567	1013.14227	341.30597	412.34512	1021.94586	187.07951	519.87299	1024.46436	228.72060	387.41803	1000.11047	302.42285	332.42270	1132.21899	311.51364	306.78125	983.10559	203.24393	300.24524	1006.02539	196.86351	386.80362	1013.23810	76.21327	367.27100	1006.54694	-92.93060	315.38965	1083.59424	-67.16075	275.41257	1055.28320	-101.23149	365.59674	1005.34259	-175.51311	205.00418	1047.84460	-150.43130	152.73642	
